<svg xmlns="http://www.w3.org/2000/svg" viewBox="0 0 240 220" role="img" aria-labelledby="title desc"><title id="title">Abyss Walker</title><desc id="desc">Original dark abyss monster for Microglow Orbs.</desc><defs><radialGradient id="body" cx="42%" cy="30%" r="76%"><stop offset="0" stop-color="#e9ddff"/><stop offset=".32" stop-color="#9b6bff"/><stop offset="1" stop-color="#251048"/></radialGradient><filter id="glow" x="-24%" y="-24%" width="148%" height="148%"><feGaussianBlur stdDeviation="7" result="blur"/><feColorMatrix in="blur" values="0 0 0 0 .62 0 0 0 0 .42 0 0 0 0 1 0 0 0 .78 0"/><feMerge><feMergeNode/><feMergeNode in="SourceGraphic"/></feMerge></filter></defs><ellipse cx="120" cy="188" rx="72" ry="14" fill="#080716" opacity=".55"/><path d="M59 65c20 5 39 21 50 45-24-7-48-20-68-40z" fill="#2fd7ff" opacity=".75" stroke="#c5f6ff" stroke-width="4"/><path d="M181 65c-20 5-39 21-50 45 24-7 48-20 68-40z" fill="#2fd7ff" opacity=".75" stroke="#c5f6ff" stroke-width="4"/><path filter="url(#glow)" d="M45 133c0-54 33-92 75-92s75 38 75 92c0 44-27 63-75 63s-75-19-75-63z" fill="url(#body)" stroke="#d8ccff" stroke-width="5"/><path d="M80 96c14-19 27-27 40-27 15 0 29 9 40 27-28-10-52-10-80 0z" fill="#d7c8ff" opacity=".5"/><path d="M82 129l28-11 28 11 24-11" fill="none" stroke="#0d0920" stroke-width="8" stroke-linecap="round" stroke-linejoin="round"/><circle cx="101" cy="127" r="5" fill="#ffd84d"/><circle cx="143" cy="127" r="5" fill="#ffd84d"/><path d="M102 159c10-7 27-7 37 0" fill="none" stroke="#0d0920" stroke-width="7" stroke-linecap="round"/><path d="M63 163l-33 19 10-47" fill="#1a0d35" stroke="#baa5ff" stroke-width="4"/><path d="M177 163l33 19-10-47" fill="#1a0d35" stroke="#baa5ff" stroke-width="4"/></svg>
