<svg xmlns="http://www.w3.org/2000/svg" viewBox="0 0 240 220" role="img" aria-labelledby="title desc"><title id="title">Resonance Beast</title><desc id="desc">Original resonance beast boss for Microglow Orbs.</desc><defs><linearGradient id="body" x1="58" y1="24" x2="179" y2="196" gradientUnits="userSpaceOnUse"><stop offset="0" stop-color="#fff"/><stop offset=".25" stop-color="#ff5ebc"/><stop offset=".62" stop-color="#2fd7ff"/><stop offset="1" stop-color="#18215e"/></linearGradient><filter id="glow" x="-24%" y="-24%" width="148%" height="148%"><feGaussianBlur stdDeviation="8" result="blur"/><feColorMatrix in="blur" values="0 0 0 0 .45 0 0 0 0 .73 0 0 0 0 1 0 0 0 .82 0"/><feMerge><feMergeNode/><feMergeNode in="SourceGraphic"/></feMerge></filter></defs><ellipse cx="120" cy="190" rx="82" ry="15" fill="#050a1b" opacity=".55"/><path d="M69 66L50 28l45 15 25-30 25 30 45-15-19 38" fill="#ffd84d" stroke="#fff1a6" stroke-width="5" stroke-linejoin="round"/><path filter="url(#glow)" d="M44 128c0-58 33-91 76-91s76 33 76 91c0 50-30 68-76 68s-76-18-76-68z" fill="url(#body)" stroke="#e9f7ff" stroke-width="5"/><path d="M74 92c16-22 31-31 46-31s31 9 46 31c-32-12-60-12-92 0z" fill="#fff" opacity=".35"/><path d="M82 125c13-14 29-14 43 0" fill="none" stroke="#071426" stroke-width="9" stroke-linecap="round"/><path d="M119 125c13-14 29-14 43 0" fill="none" stroke="#071426" stroke-width="9" stroke-linecap="round"/><circle cx="103" cy="126" r="5" fill="#ffd84d"/><circle cx="142" cy="126" r="5" fill="#ffd84d"/><path d="M89 153c19 18 43 18 62 0" fill="none" stroke="#071426" stroke-width="8" stroke-linecap="round"/><path d="M72 162l-39 18 17-48" fill="#ff5ebc" opacity=".85" stroke="#ffd4ef" stroke-width="4"/><path d="M168 162l39 18-17-48" fill="#2fd7ff" opacity=".85" stroke="#c9f5ff" stroke-width="4"/></svg>
