<svg xmlns="http://www.w3.org/2000/svg" viewBox="0 0 240 220" role="img" aria-labelledby="title desc"><title id="title">Pulse Golem</title><desc id="desc">Original crystal golem monster for Microglow Orbs.</desc><defs><linearGradient id="rock" x1="62" y1="31" x2="178" y2="190" gradientUnits="userSpaceOnUse"><stop offset="0" stop-color="#f5ffe6"/><stop offset=".35" stop-color="#9df56c"/><stop offset="1" stop-color="#2c7442"/></linearGradient><filter id="glow" x="-22%" y="-22%" width="144%" height="144%"><feGaussianBlur stdDeviation="5" result="blur"/><feColorMatrix in="blur" values="0 0 0 0 .52 0 0 0 0 .96 0 0 0 0 .37 0 0 0 .72 0"/><feMerge><feMergeNode/><feMergeNode in="SourceGraphic"/></feMerge></filter></defs><ellipse cx="120" cy="190" rx="72" ry="13" fill="#0b231b" opacity=".5"/><path d="M56 95l26-47 32 17-21 50z" fill="#b9ff7c" stroke="#ebffd8" stroke-width="5"/><path d="M184 95l-26-47-32 17 21 50z" fill="#b9ff7c" stroke="#ebffd8" stroke-width="5"/><path filter="url(#glow)" d="M67 99l53-61 53 61-18 86H85L67 99z" fill="url(#rock)" stroke="#e6ffd8" stroke-width="5"/><path d="M84 111h72l-10 52H94z" fill="#083524" opacity=".42"/><path d="M91 121l20-12 17 12 21-12" fill="none" stroke="#dcffd0" stroke-width="5" stroke-linecap="round" opacity=".75"/><rect x="86" y="132" width="26" height="13" rx="6" fill="#061b18"/><rect x="128" y="132" width="26" height="13" rx="6" fill="#061b18"/><path d="M104 164h32" stroke="#06241b" stroke-width="8" stroke-linecap="round"/><path d="M57 141l-28 16 8-45 29 10z" fill="#59d768" stroke="#dcffd0" stroke-width="4"/><path d="M183 141l28 16-8-45-29 10z" fill="#59d768" stroke="#dcffd0" stroke-width="4"/></svg>
