<svg xmlns="http://www.w3.org/2000/svg" viewBox="0 0 240 220" role="img" aria-labelledby="title desc"><title id="title">Neon Guardian</title><desc id="desc">Original horned guardian monster for Microglow Orbs.</desc><defs><radialGradient id="body" cx="42%" cy="30%" r="78%"><stop offset="0" stop-color="#fff5ff"/><stop offset=".38" stop-color="#ff6fc8"/><stop offset="1" stop-color="#642579"/></radialGradient><filter id="glow" x="-22%" y="-22%" width="144%" height="144%"><feGaussianBlur stdDeviation="6" result="blur"/><feColorMatrix in="blur" values="0 0 0 0 1 0 0 0 0 .25 0 0 0 0 .76 0 0 0 .78 0"/><feMerge><feMergeNode/><feMergeNode in="SourceGraphic"/></feMerge></filter></defs><ellipse cx="120" cy="187" rx="68" ry="13" fill="#220724" opacity=".5"/><path d="M70 76c-20-18-23-39-17-55 25 10 42 26 48 53z" fill="#ffd84d" stroke="#fff2a6" stroke-width="5"/><path d="M170 76c20-18 23-39 17-55-25 10-42 26-48 53z" fill="#ffd84d" stroke="#fff2a6" stroke-width="5"/><path filter="url(#glow)" d="M48 122c0-49 31-83 72-83s72 34 72 83c0 49-31 74-72 74s-72-25-72-74z" fill="url(#body)" stroke="#ffd4f2" stroke-width="5"/><path d="M81 94c14-18 29-25 39-25 12 0 27 9 39 25-23-9-52-9-78 0z" fill="#ffc7ed" opacity=".6"/><path d="M80 126c14-11 28-11 39 0" fill="none" stroke="#280b32" stroke-width="8" stroke-linecap="round"/><path d="M121 126c14-11 28-11 39 0" fill="none" stroke="#280b32" stroke-width="8" stroke-linecap="round"/><circle cx="100" cy="128" r="5" fill="#fff"/><circle cx="141" cy="128" r="5" fill="#fff"/><path d="M97 158c11 11 35 16 53 0" fill="none" stroke="#2f0b36" stroke-width="7" stroke-linecap="round"/><path d="M70 156l-30 16 14-36" fill="#9b6bff" opacity=".85"/><path d="M170 156l30 16-14-36" fill="#9b6bff" opacity=".85"/></svg>
