<svg xmlns="http://www.w3.org/2000/svg" viewBox="0 0 240 220" role="img" aria-labelledby="title desc"><title id="title">Phantom Gatekeeper</title><desc id="desc">Original floating phantom monster for Microglow Orbs.</desc><defs><radialGradient id="body" cx="44%" cy="24%" r="82%"><stop offset="0" stop-color="#fff8d0"/><stop offset=".34" stop-color="#ffd84d"/><stop offset="1" stop-color="#b35c21"/></radialGradient><filter id="glow" x="-24%" y="-24%" width="148%" height="148%"><feGaussianBlur stdDeviation="7" result="blur"/><feColorMatrix in="blur" values="0 0 0 0 1 0 0 0 0 .74 0 0 0 0 .2 0 0 0 .8 0"/><feMerge><feMergeNode/><feMergeNode in="SourceGraphic"/></feMerge></filter></defs><ellipse cx="120" cy="188" rx="62" ry="13" fill="#2f1707" opacity=".48"/><path filter="url(#glow)" d="M62 109c0-43 27-75 58-75s58 32 58 75v75l-17-15-15 17-15-17-13 18-15-18-15 17-13-17-13 15z" fill="url(#body)" stroke="#fff1a9" stroke-width="5"/><path d="M82 89c10-21 23-33 38-33 16 0 29 12 38 33-25-12-51-12-76 0z" fill="#fff2a9" opacity=".58"/><path d="M85 119c14-13 28-13 42 0" fill="none" stroke="#3c1a08" stroke-width="8" stroke-linecap="round"/><path d="M124 119c14-13 28-13 42 0" fill="none" stroke="#3c1a08" stroke-width="8" stroke-linecap="round"/><circle cx="106" cy="121" r="5" fill="#fff"/><circle cx="145" cy="121" r="5" fill="#fff"/><path d="M102 151c9 8 27 8 36 0" fill="none" stroke="#3c1a08" stroke-width="7" stroke-linecap="round"/><circle cx="54" cy="85" r="13" fill="#fff3b8" opacity=".75"/><circle cx="186" cy="85" r="13" fill="#fff3b8" opacity=".75"/></svg>
