<svg xmlns="http://www.w3.org/2000/svg" viewBox="0 0 240 220" role="img" aria-labelledby="title desc"><title id="title">Microglow Sentinel</title><desc id="desc">Original floating sentinel monster for Microglow Orbs.</desc><defs><linearGradient id="armor" x1="52" y1="32" x2="184" y2="188" gradientUnits="userSpaceOnUse"><stop offset="0" stop-color="#f9fbff"/><stop offset=".34" stop-color="#69d9ff"/><stop offset="1" stop-color="#3553d8"/></linearGradient><filter id="glow" x="-22%" y="-22%" width="144%" height="144%"><feGaussianBlur stdDeviation="5" result="blur"/><feColorMatrix in="blur" values="0 0 0 0 .18 0 0 0 0 .78 0 0 0 0 1 0 0 0 .72 0"/><feMerge><feMergeNode/><feMergeNode in="SourceGraphic"/></feMerge></filter></defs><ellipse cx="120" cy="188" rx="60" ry="12" fill="#071e35" opacity=".5"/><path filter="url(#glow)" d="M120 32l67 44-18 87-49 31-49-31-18-87 67-44z" fill="url(#armor)" stroke="#c9f5ff" stroke-width="5"/><path d="M74 82l46-30 46 30-13 63-33 22-33-22-13-63z" fill="#09213e" opacity=".45"/><path d="M82 96h76l-10 45-28 18-28-18-10-45z" fill="#102f64"/><path d="M79 86l-28-18-14 26 32 22" fill="#43cfff" stroke="#bcefff" stroke-width="4"/><path d="M161 86l28-18 14 26-32 22" fill="#43cfff" stroke="#bcefff" stroke-width="4"/><rect x="92" y="109" width="56" height="20" rx="10" fill="#041625"/><circle cx="105" cy="119" r="5" fill="#ffd84d"/><circle cx="135" cy="119" r="5" fill="#ffd84d"/><path d="M100 145h40" stroke="#9be9ff" stroke-width="6" stroke-linecap="round"/></svg>
