<svg xmlns="http://www.w3.org/2000/svg" viewBox="0 0 240 220" role="img" aria-labelledby="title desc"><title id="title">Glow Slime</title><desc id="desc">Original neon slime monster for Microglow Orbs.</desc><defs><radialGradient id="body" cx="38%" cy="28%" r="76%"><stop offset="0" stop-color="#d9fff6"/><stop offset=".36" stop-color="#37e6ba"/><stop offset="1" stop-color="#086f79"/></radialGradient><filter id="glow" x="-25%" y="-25%" width="150%" height="150%"><feGaussianBlur stdDeviation="6" result="blur"/><feColorMatrix in="blur" values="0 0 0 0 0.141 0 0 0 0 0.906 0 0 0 0 0.729 0 0 0 .8 0"/><feMerge><feMergeNode/><feMergeNode in="SourceGraphic"/></feMerge></filter></defs><ellipse cx="120" cy="184" rx="70" ry="14" fill="#06232f" opacity=".45"/><path filter="url(#glow)" d="M39 139c0-47 36-88 81-88s81 41 81 88c0 35-25 56-81 56s-81-21-81-56z" fill="url(#body)" stroke="#b9fff2" stroke-width="5"/><path d="M78 84c12-20 28-34 42-38 17 4 30 17 40 37-24-13-55-13-82 1z" fill="#8dfff0" opacity=".55"/><circle cx="91" cy="132" r="12" fill="#061f2a"/><circle cx="149" cy="132" r="12" fill="#061f2a"/><circle cx="96" cy="127" r="4" fill="#fff"/><circle cx="154" cy="127" r="4" fill="#fff"/><path d="M91 159c16 11 42 11 58 0" fill="none" stroke="#062b35" stroke-width="7" stroke-linecap="round"/><path d="M59 145c-17 2-29-7-28-20 15 5 27 5 40-3" fill="#39dcb8" opacity=".78"/><path d="M181 145c17 2 29-7 28-20-15 5-27 5-40-3" fill="#39dcb8" opacity=".78"/></svg>
